<?xml version="1.0" encoding="utf-8" standalone="no"?>
<!DOCTYPE svg PUBLIC "-//W3C//DTD SVG 1.1//EN"
  "http://www.w3.org/Graphics/SVG/1.1/DTD/svg11.dtd">
<svg xmlns:xlink="http://www.w3.org/1999/xlink" width="411.023622pt" height="291.968504pt" viewBox="0 0 411.023622 291.968504" xmlns="http://www.w3.org/2000/svg" version="1.1">
 <metadata>
  <rdf:RDF xmlns:dc="http://purl.org/dc/elements/1.1/" xmlns:cc="http://creativecommons.org/ns#" xmlns:rdf="http://www.w3.org/1999/02/22-rdf-syntax-ns#">
   <cc:Work>
    <dc:type rdf:resource="http://purl.org/dc/dcmitype/StillImage"/>
    <dc:date>2026-10-05T10:01:59.084208</dc:date>
    <dc:format>image/svg+xml</dc:format>
    <dc:creator>
     <cc:Agent>
      <dc:title>Matplotlib v3.9.2, https://matplotlib.org/</dc:title>
     </cc:Agent>
    </dc:creator>
   </cc:Work>
  </rdf:RDF>
 </metadata>
 <defs>
  <style type="text/css">*{stroke-linejoin: round; stroke-linecap: butt}</style>
 </defs>
 <g id="figure_1">
  <g id="patch_1">
   <path d="M 0 291.968504 
L 411.023622 291.968504 
L 411.023622 0 
L 0 0 
z
" style="fill: #ffffff"/>
  </g>
  <g id="axes_1">
   <g id="patch_2">
    <path d="M 10.488189 168.661417 
L 96.661417 168.661417 
Q 100.062992 168.661417 100.062992 165.259843 
L 100.062992 30.330709 
Q 100.062992 26.929134 96.661417 26.929134 
L 10.488189 26.929134 
Q 7.086614 26.929134 7.086614 30.330709 
L 7.086614 165.259843 
Q 7.086614 168.661417 10.488189 168.661417 
z
" clip-path="url(#pbc648bc217)" style="fill: #ffffff; stroke: #1a1a1a; stroke-width: 0.8; stroke-linejoin: miter"/>
   </g>
   <g id="patch_3">
    <path d="M 13.322835 164.409449 
L 93.826772 164.409449 
Q 95.811024 164.409449 95.811024 162.425197 
L 95.811024 113.952756 
Q 95.811024 111.968504 93.826772 111.968504 
L 13.322835 111.968504 
Q 11.338583 111.968504 11.338583 113.952756 
L 11.338583 162.425197 
Q 11.338583 164.409449 13.322835 164.409449 
z
" clip-path="url(#pbc648bc217)" style="fill: #eff6ff; stroke: #1a1a1a; stroke-width: 0.8; stroke-linejoin: miter"/>
   </g>
   <g id="patch_4">
    <path d="M 111.685039 168.661417 
L 197.858268 168.661417 
Q 201.259843 168.661417 201.259843 165.259843 
L 201.259843 30.330709 
Q 201.259843 26.929134 197.858268 26.929134 
L 111.685039 26.929134 
Q 108.283465 26.929134 108.283465 30.330709 
L 108.283465 165.259843 
Q 108.283465 168.661417 111.685039 168.661417 
z
" clip-path="url(#pbc648bc217)" style="fill: #ffffff; stroke: #1a1a1a; stroke-width: 0.8; stroke-linejoin: miter"/>
   </g>
   <g id="patch_5">
    <path d="M 114.519685 164.409449 
L 195.023622 164.409449 
Q 197.007874 164.409449 197.007874 162.425197 
L 197.007874 113.952756 
Q 197.007874 111.968504 195.023622 111.968504 
L 114.519685 111.968504 
Q 112.535433 111.968504 112.535433 113.952756 
L 112.535433 162.425197 
Q 112.535433 164.409449 114.519685 164.409449 
z
" clip-path="url(#pbc648bc217)" style="fill: #f0f9ff; stroke: #1a1a1a; stroke-width: 0.8; stroke-linejoin: miter"/>
   </g>
   <g id="patch_6">
    <path d="M 212.88189 168.661417 
L 299.055118 168.661417 
Q 302.456693 168.661417 302.456693 165.259843 
L 302.456693 30.330709 
Q 302.456693 26.929134 299.055118 26.929134 
L 212.88189 26.929134 
Q 209.480315 26.929134 209.480315 30.330709 
L 209.480315 165.259843 
Q 209.480315 168.661417 212.88189 168.661417 
z
" clip-path="url(#pbc648bc217)" style="fill: #ffffff; stroke: #1a1a1a; stroke-width: 0.8; stroke-linejoin: miter"/>
   </g>
   <g id="patch_7">
    <path d="M 215.716535 164.409449 
L 296.220472 164.409449 
Q 298.204724 164.409449 298.204724 162.425197 
L 298.204724 113.952756 
Q 298.204724 111.968504 296.220472 111.968504 
L 215.716535 111.968504 
Q 213.732283 111.968504 213.732283 113.952756 
L 213.732283 162.425197 
Q 213.732283 164.409449 215.716535 164.409449 
z
" clip-path="url(#pbc648bc217)" style="fill: #ecfdf5; stroke: #1a1a1a; stroke-width: 0.8; stroke-linejoin: miter"/>
   </g>
   <g id="patch_8">
    <path d="M 314.07874 168.661417 
L 400.251969 168.661417 
Q 403.653543 168.661417 403.653543 165.259843 
L 403.653543 30.330709 
Q 403.653543 26.929134 400.251969 26.929134 
L 314.07874 26.929134 
Q 310.677165 26.929134 310.677165 30.330709 
L 310.677165 165.259843 
Q 310.677165 168.661417 314.07874 168.661417 
z
" clip-path="url(#pbc648bc217)" style="fill: #ffffff; stroke: #1a1a1a; stroke-width: 0.8; stroke-linejoin: miter"/>
   </g>
   <g id="patch_9">
    <path d="M 316.913386 164.409449 
L 397.417323 164.409449 
Q 399.401575 164.409449 399.401575 162.425197 
L 399.401575 113.952756 
Q 399.401575 111.968504 397.417323 111.968504 
L 316.913386 111.968504 
Q 314.929134 111.968504 314.929134 113.952756 
L 314.929134 162.425197 
Q 314.929134 164.409449 316.913386 164.409449 
z
" clip-path="url(#pbc648bc217)" style="fill: #faf5ff; stroke: #1a1a1a; stroke-width: 0.8; stroke-linejoin: miter"/>
   </g>
   <g id="patch_10">
    <path d="M 9.354331 238.110236 
L 133.795276 238.110236 
Q 136.062992 238.110236 136.062992 235.84252 
L 136.062992 197.858268 
Q 136.062992 195.590551 133.795276 195.590551 
L 9.354331 195.590551 
Q 7.086614 195.590551 7.086614 197.858268 
L 7.086614 235.84252 
Q 7.086614 238.110236 9.354331 238.110236 
z
" clip-path="url(#pbc648bc217)" style="fill: #eff6ff; stroke: #1a1a1a; stroke-width: 0.8; stroke-linejoin: miter"/>
   </g>
   <g id="patch_11">
    <path d="M 144.566929 238.110236 
L 269.007874 238.110236 
Q 271.275591 238.110236 271.275591 235.84252 
L 271.275591 197.858268 
Q 271.275591 195.590551 269.007874 195.590551 
L 144.566929 195.590551 
Q 142.299213 195.590551 142.299213 197.858268 
L 142.299213 235.84252 
Q 142.299213 238.110236 144.566929 238.110236 
z
" clip-path="url(#pbc648bc217)" style="fill: #f0f9ff; stroke: #1a1a1a; stroke-width: 0.8; stroke-linejoin: miter"/>
   </g>
   <g id="patch_12">
    <path d="M 279.779528 238.110236 
L 404.220472 238.110236 
Q 406.488189 238.110236 406.488189 235.84252 
L 406.488189 197.858268 
Q 406.488189 195.590551 404.220472 195.590551 
L 279.779528 195.590551 
Q 277.511811 195.590551 277.511811 197.858268 
L 277.511811 235.84252 
Q 277.511811 238.110236 279.779528 238.110236 
z
" clip-path="url(#pbc648bc217)" style="fill: #ecfdf5; stroke: #1a1a1a; stroke-width: 0.8; stroke-linejoin: miter"/>
   </g>
   <g id="patch_13">
    <path d="M 9.354331 285.732283 
L 133.795276 285.732283 
Q 136.062992 285.732283 136.062992 283.464567 
L 136.062992 245.480315 
Q 136.062992 243.212598 133.795276 243.212598 
L 9.354331 243.212598 
Q 7.086614 243.212598 7.086614 245.480315 
L 7.086614 283.464567 
Q 7.086614 285.732283 9.354331 285.732283 
z
" clip-path="url(#pbc648bc217)" style="fill: #fffbeb; stroke: #1a1a1a; stroke-width: 0.8; stroke-linejoin: miter"/>
   </g>
   <g id="patch_14">
    <path d="M 144.566929 285.732283 
L 269.007874 285.732283 
Q 271.275591 285.732283 271.275591 283.464567 
L 271.275591 245.480315 
Q 271.275591 243.212598 269.007874 243.212598 
L 144.566929 243.212598 
Q 142.299213 243.212598 142.299213 245.480315 
L 142.299213 283.464567 
Q 142.299213 285.732283 144.566929 285.732283 
z
" clip-path="url(#pbc648bc217)" style="fill: #fef2f2; stroke: #1a1a1a; stroke-width: 0.8; stroke-linejoin: miter"/>
   </g>
   <g id="patch_15">
    <path d="M 279.779528 285.732283 
L 404.220472 285.732283 
Q 406.488189 285.732283 406.488189 283.464567 
L 406.488189 245.480315 
Q 406.488189 243.212598 404.220472 243.212598 
L 279.779528 243.212598 
Q 277.511811 243.212598 277.511811 245.480315 
L 277.511811 283.464567 
Q 277.511811 285.732283 279.779528 285.732283 
z
" clip-path="url(#pbc648bc217)" style="fill: #fef2f2; stroke: #1a1a1a; stroke-width: 0.8; stroke-linejoin: miter"/>
   </g>
   <g id="patch_16">
    <path d="M 10.488189 44.503937 
L 96.661417 44.503937 
Q 100.062992 44.503937 100.062992 41.102362 
L 100.062992 30.330709 
Q 100.062992 26.929134 96.661417 26.929134 
L 10.488189 26.929134 
Q 7.086614 26.929134 7.086614 30.330709 
L 7.086614 41.102362 
Q 7.086614 44.503937 10.488189 44.503937 
z
" clip-path="url(#pbc648bc217)" style="fill: #1e40af; stroke: #1a1a1a; stroke-width: 0.8; stroke-linejoin: miter"/>
   </g>
   <g id="patch_17">
    <path d="M 7.086614 44.503937 
L 100.062992 44.503937 
L 100.062992 35.716535 
L 7.086614 35.716535 
z
" clip-path="url(#pbc648bc217)" style="fill: #1e40af"/>
   </g>
   <g id="patch_18">
    <path d="M 111.685039 44.503937 
L 197.858268 44.503937 
Q 201.259843 44.503937 201.259843 41.102362 
L 201.259843 30.330709 
Q 201.259843 26.929134 197.858268 26.929134 
L 111.685039 26.929134 
Q 108.283465 26.929134 108.283465 30.330709 
L 108.283465 41.102362 
Q 108.283465 44.503937 111.685039 44.503937 
z
" clip-path="url(#pbc648bc217)" style="fill: #075985; stroke: #1a1a1a; stroke-width: 0.8; stroke-linejoin: miter"/>
   </g>
   <g id="patch_19">
    <path d="M 108.283465 44.503937 
L 201.259843 44.503937 
L 201.259843 35.716535 
L 108.283465 35.716535 
z
" clip-path="url(#pbc648bc217)" style="fill: #075985"/>
   </g>
   <g id="patch_20">
    <path d="M 212.88189 44.503937 
L 299.055118 44.503937 
Q 302.456693 44.503937 302.456693 41.102362 
L 302.456693 30.330709 
Q 302.456693 26.929134 299.055118 26.929134 
L 212.88189 26.929134 
Q 209.480315 26.929134 209.480315 30.330709 
L 209.480315 41.102362 
Q 209.480315 44.503937 212.88189 44.503937 
z
" clip-path="url(#pbc648bc217)" style="fill: #065f46; stroke: #1a1a1a; stroke-width: 0.8; stroke-linejoin: miter"/>
   </g>
   <g id="patch_21">
    <path d="M 209.480315 44.503937 
L 302.456693 44.503937 
L 302.456693 35.716535 
L 209.480315 35.716535 
z
" clip-path="url(#pbc648bc217)" style="fill: #065f46"/>
   </g>
   <g id="patch_22">
    <path d="M 314.07874 44.503937 
L 400.251969 44.503937 
Q 403.653543 44.503937 403.653543 41.102362 
L 403.653543 30.330709 
Q 403.653543 26.929134 400.251969 26.929134 
L 314.07874 26.929134 
Q 310.677165 26.929134 310.677165 30.330709 
L 310.677165 41.102362 
Q 310.677165 44.503937 314.07874 44.503937 
z
" clip-path="url(#pbc648bc217)" style="fill: #6b21a8; stroke: #1a1a1a; stroke-width: 0.8; stroke-linejoin: miter"/>
   </g>
   <g id="patch_23">
    <path d="M 310.677165 44.503937 
L 403.653543 44.503937 
L 403.653543 35.716535 
L 310.677165 35.716535 
z
" clip-path="url(#pbc648bc217)" style="fill: #6b21a8"/>
   </g>
   <g id="text_1">
    <text style="fill: #1a1a1a; font: 700 8.2px 'Times New Roman', 'DejaVu Serif', serif; text-anchor: start" x="7.086614" y="12.69977" transform="rotate(-0 7.086614 12.69977)">A. Funciones de la explicación a lo largo del ciclo de vida</text>
   </g>
   <g id="line2d_1">
    <path d="M 7.086614 44.503937 
L 100.062992 44.503937 
" clip-path="url(#pbc648bc217)" style="fill: none; stroke: #1a1a1a; stroke-width: 0.8; stroke-linecap: square"/>
   </g>
   <g id="text_2">
    <text style="fill: #1a1a1a; font: 7.6px 'Times New Roman', 'DejaVu Serif', serif" transform="translate(12.188976 56.300872)">Descubrir dependencias</text>
    <text style="fill: #1a1a1a; font: 7.6px 'Times New Roman', 'DejaVu Serif', serif" transform="translate(12.188976 65.050847)">espurias, variables</text>
    <text style="fill: #1a1a1a; font: 7.6px 'Times New Roman', 'DejaVu Serif', serif" transform="translate(12.188976 73.800822)">proxy o fugas de</text>
    <text style="fill: #1a1a1a; font: 7.6px 'Times New Roman', 'DejaVu Serif', serif" transform="translate(12.188976 82.565047)">información.</text>
   </g>
   <g id="text_3">
    <text style="fill: #1a1a1a; font: 700 6.8px 'Times New Roman', 'DejaVu Serif', serif; text-anchor: start" x="15.590551" y="121.573741" transform="rotate(-0 15.590551 121.573741)">Evidencia necesaria</text>
   </g>
   <g id="text_4">
    <text style="fill: #1a1a1a; font: italic 6.8px 'Times New Roman', 'DejaVu Serif', serif" transform="translate(15.590551 132.280805)">Localizar qué</text>
    <text style="fill: #1a1a1a; font: italic 6.8px 'Times New Roman', 'DejaVu Serif', serif" transform="translate(15.590551 139.873643)">características</text>
    <text style="fill: #1a1a1a; font: italic 6.8px 'Times New Roman', 'DejaVu Serif', serif" transform="translate(15.590551 147.46648)">influyen</text>
   </g>
   <g id="line2d_2">
    <path d="M 108.283465 44.503937 
L 201.259843 44.503937 
" clip-path="url(#pbc648bc217)" style="fill: none; stroke: #1a1a1a; stroke-width: 0.8; stroke-linecap: square"/>
   </g>
   <g id="text_5">
    <text style="fill: #1a1a1a; font: 7.6px 'Times New Roman', 'DejaVu Serif', serif" transform="translate(113.385827 56.300872)">Probar casos límite y</text>
    <text style="fill: #1a1a1a; font: 7.6px 'Times New Roman', 'DejaVu Serif', serif" transform="translate(113.385827 65.065097)">comparar si distintos</text>
    <text style="fill: #1a1a1a; font: 7.6px 'Times New Roman', 'DejaVu Serif', serif" transform="translate(113.385827 73.815072)">modelos se apoyan en</text>
    <text style="fill: #1a1a1a; font: 7.6px 'Times New Roman', 'DejaVu Serif', serif" transform="translate(113.385827 82.584106)">patrones semejantes.</text>
   </g>
   <g id="text_6">
    <text style="fill: #1a1a1a; font: 700 6.8px 'Times New Roman', 'DejaVu Serif', serif; text-anchor: start" x="116.787402" y="121.573741" transform="rotate(-0 116.787402 121.573741)">Evidencia necesaria</text>
   </g>
   <g id="text_7">
    <text style="fill: #1a1a1a; font: italic 6.8px 'Times New Roman', 'DejaVu Serif', serif" transform="translate(116.787402 132.280805)">Comprobar que la señal</text>
    <text style="fill: #1a1a1a; font: italic 6.8px 'Times New Roman', 'DejaVu Serif', serif" transform="translate(116.787402 139.873643)">se conserva ante</text>
    <text style="fill: #1a1a1a; font: italic 6.8px 'Times New Roman', 'DejaVu Serif', serif" transform="translate(116.787402 147.46648)">perturbaciones</text>
   </g>
   <g id="line2d_3">
    <path d="M 209.480315 44.503937 
L 302.456693 44.503937 
" clip-path="url(#pbc648bc217)" style="fill: none; stroke: #1a1a1a; stroke-width: 0.8; stroke-linecap: square"/>
   </g>
   <g id="text_8">
    <text style="fill: #1a1a1a; font: 7.6px 'Times New Roman', 'DejaVu Serif', serif" transform="translate(214.582677 56.300872)">Monitorear cambios,</text>
    <text style="fill: #1a1a1a; font: 7.6px 'Times New Roman', 'DejaVu Serif', serif" transform="translate(214.582677 65.050847)">analizar incidentes y</text>
    <text style="fill: #1a1a1a; font: 7.6px 'Times New Roman', 'DejaVu Serif', serif" transform="translate(214.582677 73.815072)">señalar salidas que</text>
    <text style="fill: #1a1a1a; font: 7.6px 'Times New Roman', 'DejaVu Serif', serif" transform="translate(214.582677 82.565047)">requieren revisión.</text>
   </g>
   <g id="text_9">
    <text style="fill: #1a1a1a; font: 700 6.8px 'Times New Roman', 'DejaVu Serif', serif; text-anchor: start" x="217.984252" y="121.573741" transform="rotate(-0 217.984252 121.573741)">Evidencia necesaria</text>
   </g>
   <g id="text_10">
    <text style="fill: #1a1a1a; font: italic 6.8px 'Times New Roman', 'DejaVu Serif', serif" transform="translate(217.984252 132.280805)">Comunicar</text>
    <text style="fill: #1a1a1a; font: italic 6.8px 'Times New Roman', 'DejaVu Serif', serif" transform="translate(217.984252 139.873643)">incertidumbre, límites</text>
    <text style="fill: #1a1a1a; font: italic 6.8px 'Times New Roman', 'DejaVu Serif', serif" transform="translate(217.984252 147.46648)">y condiciones de uso</text>
   </g>
   <g id="line2d_4">
    <path d="M 310.677165 44.503937 
L 403.653543 44.503937 
" clip-path="url(#pbc648bc217)" style="fill: none; stroke: #1a1a1a; stroke-width: 0.8; stroke-linecap: square"/>
   </g>
   <g id="text_11">
    <text style="fill: #1a1a1a; font: 7.6px 'Times New Roman', 'DejaVu Serif', serif" transform="translate(315.779528 56.300872)">Documentar, auditar y</text>
    <text style="fill: #1a1a1a; font: 7.6px 'Times New Roman', 'DejaVu Serif', serif" transform="translate(315.779528 65.065097)">permitir impugnar el</text>
    <text style="fill: #1a1a1a; font: 7.6px 'Times New Roman', 'DejaVu Serif', serif" transform="translate(315.779528 73.829322)">resultado.</text>
   </g>
   <g id="text_12">
    <text style="fill: #1a1a1a; font: 700 6.8px 'Times New Roman', 'DejaVu Serif', serif; text-anchor: start" x="319.181102" y="121.573741" transform="rotate(-0 319.181102 121.573741)">Evidencia necesaria</text>
   </g>
   <g id="text_13">
    <text style="fill: #1a1a1a; font: italic 6.8px 'Times New Roman', 'DejaVu Serif', serif" transform="translate(319.181102 132.280805)">Trazar datos, versión</text>
    <text style="fill: #1a1a1a; font: italic 6.8px 'Times New Roman', 'DejaVu Serif', serif" transform="translate(319.181102 139.873643)">del modelo, explicador</text>
    <text style="fill: #1a1a1a; font: italic 6.8px 'Times New Roman', 'DejaVu Serif', serif" transform="translate(319.181102 147.46648)">y conclusión</text>
   </g>
   <g id="text_14">
    <text style="fill: #1a1a1a; font: 700 8.2px 'Times New Roman', 'DejaVu Serif', serif; text-anchor: start" x="7.086614" y="184.762763" transform="rotate(-0 7.086614 184.762763)">B. Audiencias y lo que necesitan de una explicación</text>
   </g>
   <g id="text_15">
    <text style="fill: #1a1a1a; font: 700 7.6px 'Times New Roman', 'DejaVu Serif', serif; text-anchor: start" x="12.755906" y="206.859397" transform="rotate(-0 12.755906 206.859397)">Desarrollo</text>
   </g>
   <g id="text_16">
    <text style="fill: #1a1a1a; font: 7.6px 'Times New Roman', 'DejaVu Serif', serif" transform="translate(12.755906 219.576463)">reproducir y corregir el</text>
    <text style="fill: #1a1a1a; font: 7.6px 'Times New Roman', 'DejaVu Serif', serif" transform="translate(12.755906 228.076825)">comportamiento</text>
   </g>
   <g id="text_17">
    <text style="fill: #1a1a1a; font: 700 7.6px 'Times New Roman', 'DejaVu Serif', serif; text-anchor: start" x="147.968504" y="206.859397" transform="rotate(-0 147.968504 206.859397)">Validación</text>
   </g>
   <g id="text_18">
    <text style="fill: #1a1a1a; font: 7.6px 'Times New Roman', 'DejaVu Serif', serif" transform="translate(147.968504 219.576463)">pruebas independientes y</text>
    <text style="fill: #1a1a1a; font: 7.6px 'Times New Roman', 'DejaVu Serif', serif" transform="translate(147.968504 228.076825)">criterios de aceptación</text>
   </g>
   <g id="text_19">
    <text style="fill: #1a1a1a; font: 700 7.6px 'Times New Roman', 'DejaVu Serif', serif; text-anchor: start" x="283.181102" y="206.859397" transform="rotate(-0 283.181102 206.859397)">Profesional del dominio</text>
   </g>
   <g id="text_20">
    <text style="fill: #1a1a1a; font: 7.6px 'Times New Roman', 'DejaVu Serif', serif" transform="translate(283.181102 219.576463)">pertinencia, límites y margen</text>
    <text style="fill: #1a1a1a; font: 7.6px 'Times New Roman', 'DejaVu Serif', serif" transform="translate(283.181102 228.076825)">para apartarse</text>
   </g>
   <g id="text_21">
    <text style="fill: #1a1a1a; font: 700 7.6px 'Times New Roman', 'DejaVu Serif', serif; text-anchor: start" x="12.755906" y="254.481444" transform="rotate(-0 12.755906 254.481444)">Dirección</text>
   </g>
   <g id="text_22">
    <text style="fill: #1a1a1a; font: 7.6px 'Times New Roman', 'DejaVu Serif', serif; text-anchor: start" x="12.755906" y="267.19851" transform="rotate(-0 12.755906 267.19851)">exposición al riesgo y controles</text>
   </g>
   <g id="text_23">
    <text style="fill: #1a1a1a; font: 700 7.6px 'Times New Roman', 'DejaVu Serif', serif; text-anchor: start" x="147.968504" y="254.600194" transform="rotate(-0 147.968504 254.600194)">Autoridad supervisora</text>
   </g>
   <g id="text_24">
    <text style="fill: #1a1a1a; font: 7.6px 'Times New Roman', 'DejaVu Serif', serif; text-anchor: start" x="147.968504" y="267.19851" transform="rotate(-0 147.968504 267.19851)">documentación verificable</text>
   </g>
   <g id="text_25">
    <text style="fill: #1a1a1a; font: 700 7.6px 'Times New Roman', 'DejaVu Serif', serif; text-anchor: start" x="283.181102" y="254.481444" transform="rotate(-0 283.181102 254.481444)">Persona afectada</text>
   </g>
   <g id="text_26">
    <text style="fill: #1a1a1a; font: 7.6px 'Times New Roman', 'DejaVu Serif', serif" transform="translate(283.181102 267.19851)">comunicación comprensible y vías</text>
    <text style="fill: #1a1a1a; font: 7.6px 'Times New Roman', 'DejaVu Serif', serif" transform="translate(283.181102 275.698872)">reales de revisión</text>
   </g>
   <g id="text_27">
    <text style="fill: #ffffff; font: 700 8.2px 'Times New Roman', 'DejaVu Serif', serif; text-anchor: middle" x="53.574803" y="37.554489" transform="rotate(-0 53.574803 37.554489)">Diseño</text>
   </g>
   <g id="text_28">
    <text style="fill: #ffffff; font: 700 8.2px 'Times New Roman', 'DejaVu Serif', serif; text-anchor: middle" x="154.771654" y="37.554489" transform="rotate(-0 154.771654 37.554489)">Validación</text>
   </g>
   <g id="text_29">
    <text style="fill: #ffffff; font: 700 8.2px 'Times New Roman', 'DejaVu Serif', serif; text-anchor: middle" x="255.968504" y="37.646098" transform="rotate(-0 255.968504 37.646098)">Operación</text>
   </g>
   <g id="text_30">
    <text style="fill: #ffffff; font: 700 8.2px 'Times New Roman', 'DejaVu Serif', serif; text-anchor: middle" x="357.165354" y="37.554489" transform="rotate(-0 357.165354 37.554489)">Tras la decisión</text>
   </g>
   <g id="patch_24">
    <path d="M 100.913386 97.795276 
Q 104.173228 97.795276 106.538644 97.795276 
" clip-path="url(#pbc648bc217)" style="fill: none; stroke: #1a1a1a; stroke-width: 0.8; stroke-linecap: round"/>
    <path d="M 103.338644 96.195276 
L 106.538644 97.795276 
L 103.338644 99.395276 
z
" clip-path="url(#pbc648bc217)" style="fill: #1a1a1a; stroke: #1a1a1a; stroke-width: 0.8; stroke-linecap: round"/>
   </g>
   <g id="patch_25">
    <path d="M 202.110236 97.795276 
Q 205.370079 97.795276 207.735494 97.795276 
" clip-path="url(#pbc648bc217)" style="fill: none; stroke: #1a1a1a; stroke-width: 0.8; stroke-linecap: round"/>
    <path d="M 204.535494 96.195276 
L 207.735494 97.795276 
L 204.535494 99.395276 
z
" clip-path="url(#pbc648bc217)" style="fill: #1a1a1a; stroke: #1a1a1a; stroke-width: 0.8; stroke-linecap: round"/>
   </g>
   <g id="patch_26">
    <path d="M 303.307087 97.795276 
Q 306.566929 97.795276 308.932344 97.795276 
" clip-path="url(#pbc648bc217)" style="fill: none; stroke: #1a1a1a; stroke-width: 0.8; stroke-linecap: round"/>
    <path d="M 305.732344 96.195276 
L 308.932344 97.795276 
L 305.732344 99.395276 
z
" clip-path="url(#pbc648bc217)" style="fill: #1a1a1a; stroke: #1a1a1a; stroke-width: 0.8; stroke-linecap: round"/>
   </g>
  </g>
 </g>
 <defs>
  <clipPath id="pbc648bc217">
   <rect x="0" y="0" width="411.023622" height="291.968504"/>
  </clipPath>
 </defs>
</svg>
